name D:\school\WTK\thesis\model\3dpredictsim\Results\MidTarsalJoint\Fal_s1_bCst_PF_Natali2010_ls150_MT_k800_MTP_T10_ig24.mot
datacolumns 128
datarows 4
range 0.56266239 0.59642214
endheader
time	pelvis_tilt	pelvis_list	pelvis_rotation	pelvis_tx	pelvis_ty	pelvis_tz	hip_flexion_l	hip_adduction_l	hip_rotation_l	hip_flexion_r	hip_adduction_r	hip_rotation_r	knee_angle_l	knee_angle_r	ankle_angle_l	ankle_angle_r	subtalar_angle_l	subtalar_angle_r	mtj_angle_l	mtj_angle_r	mtp_angle_l	mtp_angle_r	lumbar_extension	lumbar_bending	lumbar_rotation	arm_flex_l	arm_add_l	arm_rot_l	arm_flex_r	arm_add_r	arm_rot_r	elbow_flex_l	elbow_flex_r	pro_sup_l	pro_sup_r	glut_med1_l/activation	glut_med2_l/activation	glut_med3_l/activation	glut_min1_l/activation	glut_min2_l/activation	glut_min3_l/activation	semimem_l/activation	semiten_l/activation	bifemlh_l/activation	bifemsh_l/activation	sar_l/activation	add_long_l/activation	add_brev_l/activation	add_mag1_l/activation	add_mag2_l/activation	add_mag3_l/activation	tfl_l/activation	pect_l/activation	grac_l/activation	glut_max1_l/activation	glut_max2_l/activation	glut_max3_l/activation	iliacus_l/activation	psoas_l/activation	quad_fem_l/activation	gem_l/activation	peri_l/activation	rect_fem_l/activation	vas_med_l/activation	vas_int_l/activation	vas_lat_l/activation	med_gas_l/activation	lat_gas_l/activation	soleus_l/activation	tib_post_l/activation	flex_dig_l/activation	flex_hal_l/activation	tib_ant_l/activation	per_brev_l/activation	per_long_l/activation	per_tert_l/activation	ext_dig_l/activation	ext_hal_l/activation	ercspn_l/activation	intobl_l/activation	extobl_l/activation	glut_med1_r/activation	glut_med2_r/activation	glut_med3_r/activation	glut_min1_r/activation	glut_min2_r/activation	glut_min3_r/activation	semimem_r/activation	semiten_r/activation	bifemlh_r/activation	bifemsh_r/activation	sar_r/activation	add_long_r/activation	add_brev_r/activation	add_mag1_r/activation	add_mag2_r/activation	add_mag3_r/activation	tfl_r/activation	pect_r/activation	grac_r/activation	glut_max1_r/activation	glut_max2_r/activation	glut_max3_r/activation	iliacus_r/activation	psoas_r/activation	quad_fem_r/activation	gem_r/activation	peri_r/activation	rect_fem_r/activation	vas_med_r/activation	vas_int_r/activation	vas_lat_r/activation	med_gas_r/activation	lat_gas_r/activation	soleus_r/activation	tib_post_r/activation	flex_dig_r/activation	flex_hal_r/activation	tib_ant_r/activation	per_brev_r/activation	per_long_r/activation	per_tert_r/activation	ext_dig_r/activation	ext_hal_r/activation	ercspn_r/activation	intobl_r/activation	extobl_r/activation	
          0.56266239	         -2.93014612	          2.03360388	         -5.23931945	          0.70332799	          0.91931037	          0.00189356	         29.40196056	          3.27847486	         -2.58203473	        -17.27111347	         -1.03275482	          6.26810314	        -11.78505678	         -7.12094569	          5.96055273	         -0.72617247	         -3.86184820	          8.57857916	         -0.01116024	          2.02435955	         -0.79645499	         15.80606115	         -2.03846082	         -0.22302614	          1.99925597	         -5.41540775	        -13.45446534	          5.27311015	          4.49753610	        -13.45431260	         15.23546327	         17.88953365	         35.28060473	         86.51662706	         86.51662706	          0.05937765	          0.05937769	          0.05000048	          0.05937777	          0.05937775	          0.05937569	          0.13120168	          0.05937834	          0.21175441	          0.05000123	          0.05000043	          0.14024580	          0.30007116	          0.11349566	          0.15587704	          0.10605880	          0.05000032	          0.05740955	          0.11496931	          0.05000121	          0.05002080	          0.15350196	          0.05000416	          0.05000038	          0.23601612	          0.26940479	          0.12863117	          0.05000281	          0.12998086	          0.12871904	          0.11504377	          0.05131397	          0.05209500	          0.05563079	          0.05000007	          0.05000103	          0.05000053	          0.52412000	          0.25915839	          0.16292270	          0.19360671	          0.46801920	          0.22714375	          0.05937767	          0.11407749	          0.09991623	          0.25910788	          0.09945603	          0.07260753	          0.28676388	          0.19467518	          0.11036841	          0.05000296	          0.05000062	          0.05000036	          0.05952599	          0.10463979	          0.09731892	          0.07033420	          0.05000645	          0.05001566	          0.05000262	          0.30360246	          0.05210813	          0.05000580	          0.05001268	          0.05000824	          0.05000940	          0.39916041	          0.64166296	          0.05000090	          0.05000106	          0.05439056	          0.22900681	          0.05004379	          0.05002903	          0.05001841	          0.28651337	          0.38939479	          0.31579522	          0.28498381	          0.27685557	          0.36438209	          0.05000008	          0.05937707	          0.13228093	          0.05000047	          0.05000013	          0.05000046	          0.05000005	          0.05000066	          0.05407835	
          0.57391564	         -2.92686495	          2.12222347	         -5.51598805	          0.72026511	          0.91835469	          0.00169235	         28.78439224	          3.62686760	         -2.34311947	        -17.13849620	         -1.32826548	          6.05910570	        -12.05712181	         -9.04758747	          5.31605613	         -1.38365091	         -4.23172114	          9.49589805	         -0.03932484	          1.61239264	         -0.79267948	         16.97236550	         -1.84005896	         -0.43009706	          2.06597887	         -6.26787495	        -13.45338043	          5.04149908	          4.22354636	        -13.46061955	         15.59133948	         17.48269741	         36.41307687	         86.51662706	         86.51662706	          0.05000002	          0.05000009	          0.10952072	          0.05000010	          0.05000011	          0.05000013	          0.11048085	          0.05000071	          0.17831146	          0.05000022	          0.05943166	          0.11809675	          0.27042539	          0.33543402	          0.21822337	          0.11824227	          0.05000073	          0.07048643	          0.13264110	          0.05267689	          0.08929764	          0.13040322	          0.05000022	          0.07051369	          0.47643774	          0.22685692	          0.10831612	          0.06163685	          0.14836317	          0.15106924	          0.12880867	          0.05000134	          0.05969604	          0.05000007	          0.05937787	          0.05004339	          0.05937767	          0.48769411	          0.31106103	          0.20132521	          0.16302993	          0.42292516	          0.19127033	          0.05000002	          0.09606089	          0.08413616	          0.21818626	          0.08374867	          0.06114045	          0.24147463	          0.16392962	          0.09293766	          0.05000389	          0.05000090	          0.05000143	          0.05012496	          0.08811405	          0.19220027	          0.05924351	          0.05941146	          0.05937398	          0.05937851	          0.25565380	          0.09930524	          0.05001346	          0.05000777	          0.05000461	          0.05001038	          0.33611990	          0.59014852	          0.05000388	          0.05937859	          0.05937797	          0.19283981	          0.13397448	          0.15010888	          0.14571334	          0.24126343	          0.32789650	          0.26592079	          0.24776069	          0.23313188	          0.30683562	          0.05000004	          0.05000025	          0.14600989	          0.05000016	          0.05000004	          0.05000023	          0.05713441	          0.06913802	          0.05869764	
          0.58516889	         -2.91960673	          2.21401748	         -5.76437349	          0.73748236	          0.91743244	          0.00150777	         28.03611895	          3.88556115	         -2.07892504	        -16.93777316	         -1.62299436	          5.83892212	        -12.57190071	        -11.08084693	          4.79670425	         -2.20424361	         -4.62646023	         10.36387594	         -0.07512727	          1.15494023	         -0.83279525	         18.04206793	         -1.62268970	         -0.64723323	          2.12095411	         -7.14380065	        -13.45980071	          4.87322797	          3.87944650	        -13.46430189	         15.88060259	         17.11993629	         37.51975470	         86.51662706	         86.51662706	          0.24124947	          0.23978094	          0.30708939	          0.37022071	          0.23576574	          0.22768819	          0.10079745	          0.05003353	          0.15015226	          0.06871817	          0.05004602	          0.09944545	          0.22771643	          0.28245804	          0.18375896	          0.11978436	          0.05000078	          0.05938584	          0.11169817	          0.05000054	          0.11882054	          0.10980886	          0.05513493	          0.05937735	          0.40119252	          0.19102890	          0.21537794	          0.05190240	          0.12493189	          0.12721060	          0.10846566	          0.05000130	          0.05026829	          0.05357470	          0.05000029	          0.05000067	          0.05000111	          0.55420281	          0.29938130	          0.16952947	          0.38161432	          0.50226769	          0.16106588	          0.06173687	          0.11809635	          0.07084829	          0.31592520	          0.07052202	          0.05148441	          0.32179510	          0.13803986	          0.07825981	          0.05000235	          0.05000037	          0.05000029	          0.05000038	          0.07419851	          0.16184582	          0.05000332	          0.05002877	          0.05000163	          0.05000129	          0.25044393	          0.08363567	          0.05000176	          0.05000352	          0.05000191	          0.05000113	          0.28303581	          0.55823280	          0.05000030	          0.05000148	          0.05000049	          0.16238411	          0.11281571	          0.12640195	          0.12270058	          0.20315995	          0.27611080	          0.22392309	          0.20863121	          0.19631293	          0.25837639	          0.05000003	          0.10967545	          0.16226169	          0.05000026	          0.05000012	          0.05000023	          0.05269545	          0.05821885	          0.05000009	
          0.59642214	         -2.91061533	          2.30037241	         -5.97976824	          0.75476278	          0.91656976	          0.00129979	         27.23184473	          4.12296395	         -1.81213022	        -16.63588590	         -1.90882755	          5.62504177	        -13.04214318	        -13.25464050	          4.36202099	         -3.18017908	         -5.02088860	         11.18710068	         -0.09348812	          0.68651544	         -0.80998465	         18.90499770	         -1.40944810	         -0.86533794	          2.16669347	         -7.99552950	        -13.46743017	          4.76887233	          3.50257005	        -13.47399524	         16.13022050	         16.77745057	         38.57973162	         86.51662706	         86.51662706	          0.33011675	          0.33130189	          0.35495384	          0.31175121	          0.19858537	          0.19179352	          0.08548415	          0.08823882	          0.12643852	          0.05942294	          0.05000088	          0.08373978	          0.19175257	          0.23784906	          0.18282431	          0.16238072	          0.05000045	          0.05000794	          0.09871629	          0.21041047	          0.18010091	          0.16030156	          0.05000013	          0.05000015	          0.33783102	          0.16085923	          0.18136325	          0.05000008	          0.10520338	          0.15164002	          0.09133652	          0.05000004	          0.05000008	          0.05000001	          0.05000003	          0.05000015	          0.05000016	          0.61093822	          0.29694751	          0.16280847	          0.57421528	          0.53642436	          0.28005855	          0.08166978	          0.09944506	          0.05965901	          0.29297513	          0.05938430	          0.05000016	          0.27097395	          0.11623892	          0.06590008	          0.05000486	          0.05000039	          0.05000033	          0.05000028	          0.06248043	          0.16933905	          0.08446480	          0.05001246	          0.05001598	          0.05001207	          0.21826891	          0.07043238	          0.05000191	          0.05000497	          0.05000296	          0.05000233	          0.23833516	          0.51034995	          0.05000041	          0.05000116	          0.05000028	          0.13673835	          0.13288012	          0.12391584	          0.11809658	          0.17107427	          0.23250378	          0.18855822	          0.17568152	          0.16530884	          0.21757038	          0.05812550	          0.10076439	          0.16197808	          0.05000136	          0.11252438	          0.05000395	          0.07928021	          0.05000002	          0.05000006	
